solid OpenSCAD_Model
  facet normal -1 0 0
    outer loop
      vertex 0 1 0
      vertex 0 0 19
      vertex 0 1 63
    endloop
  endfacet
  facet normal -1 0 0
    outer loop
      vertex 0 -300 0
      vertex 0 0 19
      vertex 0 1 0
    endloop
  endfacet
  facet normal -1 -0 0
    outer loop
      vertex 0 0 19
      vertex 0 -300 0
      vertex 0 -300 19
    endloop
  endfacet
  facet normal -1 -0 0
    outer loop
      vertex 0 1 63
      vertex 0 0 19
      vertex 0 0 63
    endloop
  endfacet
  facet normal -0 0 1
    outer loop
      vertex 0 0 19
      vertex 26 -300 19
      vertex 26 0 19
    endloop
  endfacet
  facet normal 0 0 1
    outer loop
      vertex 26 -300 19
      vertex 0 0 19
      vertex 0 -300 19
    endloop
  endfacet
  facet normal 1 0 0
    outer loop
      vertex 26 0 19
      vertex 26 -2 0.45
      vertex 26 0 0.45
    endloop
  endfacet
  facet normal 1 -0 0
    outer loop
      vertex 26 -300 19
      vertex 26 -2 0.45
      vertex 26 0 19
    endloop
  endfacet
  facet normal 1 0 0
    outer loop
      vertex 26 -300 0
      vertex 26 -2 0.45
      vertex 26 -300 19
    endloop
  endfacet
  facet normal 1 0 0
    outer loop
      vertex 26 -2 0.45
      vertex 26 -300 0
      vertex 26 -2 0
    endloop
  endfacet
  facet normal 0 -1 0
    outer loop
      vertex 26 0 19
      vertex 0 0 63
      vertex 0 0 19
    endloop
  endfacet
  facet normal 0 -1 0
    outer loop
      vertex 0 0 63
      vertex 26 0 19
      vertex 50 0 63
    endloop
  endfacet
  facet normal 0 -1 0
    outer loop
      vertex 50 0 0.45
      vertex 26 0 19
      vertex 26 0 0.45
    endloop
  endfacet
  facet normal 0 -1 0
    outer loop
      vertex 26 0 19
      vertex 50 0 0.45
      vertex 50 0 63
    endloop
  endfacet
  facet normal 0 0 -1
    outer loop
      vertex 26 -300 0
      vertex 0 -300 0
      vertex 26 -2 0
    endloop
  endfacet
  facet normal 0 0 -1
    outer loop
      vertex 26 -2 0
      vertex 50 1 0
      vertex 50 -2 0
    endloop
  endfacet
  facet normal 0 0 -1
    outer loop
      vertex 26 -2 0
      vertex 0 1 0
      vertex 50 1 0
    endloop
  endfacet
  facet normal 0 0 -1
    outer loop
      vertex 0 1 0
      vertex 26 -2 0
      vertex 0 -300 0
    endloop
  endfacet
  facet normal 0 -1 0
    outer loop
      vertex 0 -300 0
      vertex 26 -300 19
      vertex 0 -300 19
    endloop
  endfacet
  facet normal 0 -1 -0
    outer loop
      vertex 26 -300 19
      vertex 0 -300 0
      vertex 26 -300 0
    endloop
  endfacet
  facet normal -0 0 1
    outer loop
      vertex 0 1 63
      vertex 50 0 63
      vertex 50 1 63
    endloop
  endfacet
  facet normal 0 0 1
    outer loop
      vertex 50 0 63
      vertex 0 1 63
      vertex 0 0 63
    endloop
  endfacet
  facet normal 1 0 0
    outer loop
      vertex 50 0 0.45
      vertex 50 1 63
      vertex 50 0 63
    endloop
  endfacet
  facet normal 1 0 0
    outer loop
      vertex 50 1 63
      vertex 50 0 0.45
      vertex 50 1 0
    endloop
  endfacet
  facet normal 1 0 0
    outer loop
      vertex 50 -2 0
      vertex 50 0 0.45
      vertex 50 -2 0.45
    endloop
  endfacet
  facet normal 1 0 0
    outer loop
      vertex 50 0 0.45
      vertex 50 -2 0
      vertex 50 1 0
    endloop
  endfacet
  facet normal 0 1 -0
    outer loop
      vertex 50 1 0
      vertex 0 1 63
      vertex 50 1 63
    endloop
  endfacet
  facet normal 0 1 0
    outer loop
      vertex 0 1 63
      vertex 50 1 0
      vertex 0 1 0
    endloop
  endfacet
  facet normal -0 0 1
    outer loop
      vertex 26 0 0.45
      vertex 50 -2 0.45
      vertex 50 0 0.45
    endloop
  endfacet
  facet normal 0 0 1
    outer loop
      vertex 50 -2 0.45
      vertex 26 0 0.45
      vertex 26 -2 0.45
    endloop
  endfacet
  facet normal 0 -1 0
    outer loop
      vertex 26 -2 0
      vertex 50 -2 0.45
      vertex 26 -2 0.45
    endloop
  endfacet
  facet normal 0 -1 -0
    outer loop
      vertex 50 -2 0.45
      vertex 26 -2 0
      vertex 50 -2 0
    endloop
  endfacet
endsolid OpenSCAD_Model
